<svg
  id="Layer_1"
  data-name="Layer 1"
  xmlns="http://www.w3.org/2000/svg"
  viewBox="0 0 907.94 219.86"
><defs><style
    >.cls-1{fill:#f2a52b;}.cls-2{fill:#231f20;}.cls-3{fill:#fff;}</style></defs><g
    id="Layer_1-2"
    data-name="Layer 1"
  ><rect class="cls-1" x="53.83" y="66.29" width="107.92" height="98.45" /><rect
      class="cls-2"
      x="75.42"
      y="69.44"
      width="64.55"
      height="82.49"
    /><polygon
      class="cls-1"
      points="161.75 151.93 140.17 151.93 140.17 125.36 118.58 125.36 118.58 134.22 97 134.22 97 98.79 118.58 98.79 118.58 107.65 140.17 107.65 140.17 81.08 75.42 81.08 75.42 151.93 53.83 151.93 53.83 54.51 75.42 54.51 75.42 63.37 97 63.37 97 54.51 118.58 54.51 118.58 63.37 140.17 63.37 140.17 54.51 161.75 54.51 161.75 151.93"
    /><polygon
      class="cls-3"
      points="205.52 130.08 215.05 130.08 215.05 139.6 224.58 139.6 224.58 149.13 262.68 149.13 262.68 139.6 272.21 139.6 272.21 130.08 253.16 130.08 253.16 139.6 234.1 139.6 234.1 130.08 224.58 130.08 224.58 101.5 234.1 101.5 234.1 91.97 253.16 91.97 253.16 101.5 272.21 101.5 272.21 91.97 262.68 91.97 262.68 82.45 224.58 82.45 224.58 91.97 215.05 91.97 215.05 101.5 205.52 101.5 205.52 130.08"
    /><path
      class="cls-3"
      d="M590.93,96.34v52.79h45.25v-7.54H606V96.34Zm-60.33,0v52.79h45.25v-7.54H545.68V126.5h22.63V119H545.68V103.88h30.17V96.34Zm-67.87,52.79h37.7v-7.54H508v-7.54h7.54V111.42H508v-7.54h-7.55V96.34h-37.7Zm30.16-45.25v7.54h7.54v22.63h-7.54v7.54H477.81V103.88ZM402.4,149.13h15.08V134.05H440.1v15.08h15.09V111.42h-7.55v-7.54H440.1V96.34H417.48v7.54h-7.54v7.54H402.4ZM425,111.42v-7.54h7.54v7.54h7.54V126.5H417.48V111.42ZM349.61,96.34v7.54h15.08v45.25h15.08V103.88h15.08V96.34Zm-60.34,0v7.54h15.09v37.71H289.27v7.54h45.25v-7.54H319.44V103.88h15.08V96.34Z"
    /><path
      class="cls-3"
      d="M796.14,139.6h9.52v9.53H853.3V139.6h9.52V92H853.3V82.45H805.66V92h-9.52ZM843.77,92V139.6H815.19V92ZM719.93,149.13H739v-19h28.58v19h19.05V101.5h-9.52V92h-9.53V82.45H739V92h-9.52v9.53h-9.53Zm28.58-47.63V92H758v9.53h9.53v19H739v-19ZM643.72,149.13h47.63V139.6h9.53v-9.52h9.52V101.5h-9.52V92h-9.53V82.45H643.72ZM681.82,92v9.53h9.53v28.58h-9.53v9.52H662.77V92Z"
    /></g></svg>
